<svg width="512" height="512" xmlns="http://www.w3.org/2000/svg">
 <!-- Created with UXWing SVG Editor - https://uxwing.com/svg-icon-editor/ -->
 <g>
  <title>background</title>
  <rect fill="none" id="canvas_background" height="514" width="514" y="-1" x="-1"/>
  <g wfd-invisible="true" display="none" overflow="visible" y="0" x="0" height="100%" width="100%" id="canvasGrid">
   <rect fill="url(#gridpattern)" stroke-width="0" y="0" x="0" height="100%" width="100%"/>
  </g>
 </g>
 <g>
  <title>Layer 1</title>
  <ellipse ry="178.5" rx="120" id="svg_1" cy="249.947917" cx="249" stroke-width="0.001" stroke="#ffffff" fill="#ffffff"/>
  <ellipse stroke="#ffffff" ry="162.500006" rx="102.999999" id="svg_3" cy="251.947922" cx="249.999999" stroke-width="0.001" fill="#00ff00"/>
  <ellipse stroke="#ffffff" ry="141.500009" rx="85.000004" id="svg_4" cy="252.947926" cx="251.000004" stroke-opacity="null" stroke-width="0.001" fill="#ffffff"/>
  <path stroke="#ffffff" transform="rotate(89.36805725097656 251.7095184326172,328.14035034179693) " id="svg_10" d="m225.399083,351.492484l24.552219,-23.357822l-24.552219,-23.35799l14.032836,-13.348811l38.588033,36.706801l-38.588033,36.718189" stroke-opacity="null" stroke-width="0.001" fill="#7fff00"/>
  <path stroke="#ffffff" transform="rotate(87.70375061035156 252.74952697753906,297.8553466796875) " id="svg_11" d="m234.732678,313.305283l16.812854,-15.453685l-16.812854,-15.453796l9.609397,-8.831659l26.42429,24.285456l-26.42429,24.29299" stroke-opacity="null" stroke-width="0.001" fill="#7fff00"/>
  <path stroke="#ffffff" transform="rotate(89.0006103515625 252.28454589843753,273.5903930664063) " id="svg_12" d="m239.353851,283.801373l12.066591,-10.21346l-12.066591,-10.213533l6.896668,-5.836912l18.964722,16.050445l-18.964722,16.055425" stroke-opacity="null" stroke-width="0.001" fill="#7fff00"/>
 </g>
</svg>